# Blender 4.0.0
# www.blender.org
mtllib autotiled_rule_tile_any.mtl
o Cube.001
v -0.193199 0.110125 -0.443529
v -0.193199 0.410125 -0.443529
v 0.326603 0.110125 0.356895
v 0.326603 0.410125 0.356895
v -0.326603 0.110125 -0.356895
v -0.326603 0.410125 -0.356895
v 0.193199 0.110125 0.443529
v 0.193199 0.410125 0.443529
vn 0.8387 -0.0000 -0.5446
vn 0.5446 -0.0000 0.8387
vn -0.8387 -0.0000 0.5446
vn -0.5446 -0.0000 -0.8387
vn -0.0000 -1.0000 -0.0000
vn -0.0000 1.0000 -0.0000
vt 0.375000 0.000000
vt 0.625000 0.000000
vt 0.625000 0.250000
vt 0.375000 0.250000
vt 0.625000 0.500000
vt 0.375000 0.500000
vt 0.625000 0.750000
vt 0.375000 0.750000
vt 0.625000 1.000000
vt 0.375000 1.000000
vt 0.125000 0.500000
vt 0.125000 0.750000
vt 0.875000 0.500000
vt 0.875000 0.750000
s 0
usemtl tile_any
f 1/1/1 2/2/1 4/3/1 3/4/1
f 3/4/2 4/3/2 8/5/2 7/6/2
f 7/6/3 8/5/3 6/7/3 5/8/3
f 5/8/4 6/7/4 2/9/4 1/10/4
f 3/11/5 7/6/5 5/8/5 1/12/5
f 8/5/6 4/13/6 2/14/6 6/7/6
o Cylinder.002
v 0.000000 0.067494 -0.743210
v 0.643639 0.367494 -0.371605
v -0.643639 0.367494 0.371605
v 0.643639 0.067494 0.371605
v 0.000000 0.067494 0.939911
v -0.813987 0.067494 0.469955
v -0.813987 0.367494 0.469955
v 0.000000 0.367494 0.939911
v -0.813987 0.067494 -0.469955
v -0.813987 0.367494 -0.469955
v 0.000000 0.067494 -0.939911
v 0.000000 0.367494 -0.939911
v 0.813987 0.067494 -0.469955
v 0.813987 0.367494 -0.469955
v 0.813987 0.067494 0.469955
v 0.813987 0.367494 0.469955
v -0.643639 0.067494 -0.371605
v 0.643639 0.067494 -0.371605
v 0.000000 0.367494 0.743210
v 0.000000 0.367494 -0.743210
v 0.000000 0.067494 0.743210
v -0.643639 0.067494 0.371605
v -0.643639 0.367494 -0.371605
v 0.643639 0.367494 0.371605
vn -0.0000 -1.0000 -0.0000
vn -0.0000 1.0000 -0.0000
vn -0.5000 -0.0000 0.8660
vn -1.0000 -0.0000 -0.0000
vn -0.5000 -0.0000 -0.8660
vn 0.5000 -0.0000 -0.8660
vn 1.0000 -0.0000 -0.0000
vn 0.5000 -0.0000 0.8660
vt 0.750000 0.010000
vt 0.957846 0.130000
vt 0.957846 0.370000
vt 0.750000 0.490000
vt 0.166667 1.000000
vt -0.000000 1.000000
vt 0.542154 0.130000
vt 0.542154 0.370000
vt 1.000000 0.500000
vt 1.000000 1.000000
vt 0.833333 1.000000
vt 0.833333 0.500000
vt 0.666667 1.000000
vt 0.666667 0.500000
vt 0.500000 1.000000
vt 0.500000 0.500000
vt 0.333333 1.000000
vt 0.333333 0.500000
vt 0.166667 0.500000
vt -0.000000 0.500000
s 0
usemtl tile_any
f 9/15/7 25/16/7 17/16/7 19/15/7
f 30/17/7 29/18/7 13/18/7 14/17/7
f 32/19/8 27/20/8 16/20/8 24/19/8
f 26/21/7 9/15/7 19/15/7 21/21/7
f 12/22/7 26/21/7 21/21/7 23/22/7
f 29/18/7 12/22/7 23/22/7 13/18/7
f 13/23/9 16/24/9 15/25/9 14/26/9
f 14/26/10 15/25/10 18/27/10 17/28/10
f 17/28/11 18/27/11 20/29/11 19/30/11
f 19/30/12 20/29/12 22/31/12 21/32/12
f 21/32/13 22/31/13 24/19/13 23/33/13
f 23/33/14 24/19/14 16/20/14 13/34/14
f 10/31/8 32/19/8 24/19/8 22/31/8
f 25/16/7 30/17/7 14/17/7 17/16/7
f 28/29/8 10/31/8 22/31/8 20/29/8
f 27/24/8 11/25/8 15/25/8 16/24/8
f 31/27/8 28/29/8 20/29/8 18/27/8
f 11/25/8 31/27/8 18/27/8 15/25/8
f 10/31/9 28/29/9 9/29/9 26/31/9
f 11/25/12 27/24/12 29/24/12 30/25/12
f 32/19/10 10/31/10 26/31/10 12/19/10
f 31/27/13 11/25/13 30/25/13 25/27/13
f 27/20/11 32/19/11 12/19/11 29/20/11
f 28/29/14 31/27/14 25/27/14 9/29/14
o Cube.002
v 0.326957 0.110125 -0.356571
v 0.326957 0.410125 -0.356571
v -0.193639 0.110125 0.443337
v -0.193639 0.410125 0.443337
v 0.193639 0.110125 -0.443337
v 0.193639 0.410125 -0.443337
v -0.326957 0.110125 0.356571
v -0.326957 0.410125 0.356571
vn 0.8381 -0.0000 0.5455
vn -0.5455 -0.0000 0.8381
vn -0.8381 -0.0000 -0.5455
vn 0.5455 -0.0000 -0.8381
vn -0.0000 -1.0000 -0.0000
vn -0.0000 1.0000 -0.0000
vt 0.375000 0.000000
vt 0.625000 0.000000
vt 0.625000 0.250000
vt 0.375000 0.250000
vt 0.625000 0.500000
vt 0.375000 0.500000
vt 0.625000 0.750000
vt 0.375000 0.750000
vt 0.625000 1.000000
vt 0.375000 1.000000
vt 0.125000 0.500000
vt 0.125000 0.750000
vt 0.875000 0.500000
vt 0.875000 0.750000
s 0
usemtl tile_any
f 33/35/15 34/36/15 36/37/15 35/38/15
f 35/38/16 36/37/16 40/39/16 39/40/16
f 39/40/17 40/39/17 38/41/17 37/42/17
f 37/42/18 38/41/18 34/43/18 33/44/18
f 35/45/19 39/40/19 37/42/19 33/46/19
f 40/39/20 36/47/20 34/48/20 38/41/20
o Cube.003
v -0.477198 0.110125 -0.079533
v -0.477198 0.410125 -0.079533
v 0.477198 0.110125 -0.079533
v 0.477198 0.410125 -0.079533
v -0.477198 0.110125 0.079533
v -0.477198 0.410125 0.079533
v 0.477198 0.110125 0.079533
v 0.477198 0.410125 0.079533
vn -0.0000 -0.0000 -1.0000
vn 1.0000 -0.0000 -0.0000
vn -0.0000 -0.0000 1.0000
vn -1.0000 -0.0000 -0.0000
vn -0.0000 -1.0000 -0.0000
vn -0.0000 1.0000 -0.0000
vt 0.375000 0.000000
vt 0.625000 0.000000
vt 0.625000 0.250000
vt 0.375000 0.250000
vt 0.625000 0.500000
vt 0.375000 0.500000
vt 0.625000 0.750000
vt 0.375000 0.750000
vt 0.625000 1.000000
vt 0.375000 1.000000
vt 0.125000 0.500000
vt 0.125000 0.750000
vt 0.875000 0.500000
vt 0.875000 0.750000
s 0
usemtl tile_any
f 41/49/21 42/50/21 44/51/21 43/52/21
f 43/52/22 44/51/22 48/53/22 47/54/22
f 47/54/23 48/53/23 46/55/23 45/56/23
f 45/56/24 46/55/24 42/57/24 41/58/24
f 43/59/25 47/54/25 45/56/25 41/60/25
f 48/53/26 44/61/26 42/62/26 46/55/26
