# Blender 4.0.0
# www.blender.org
mtllib autotiled_rule_tile_not.mtl
o Cylinder
v 0.000000 0.067494 -0.743210
v 0.643639 0.367494 -0.371605
v -0.643639 0.367494 0.371605
v 0.643639 0.067494 0.371605
v 0.000000 0.067494 0.939911
v -0.813987 0.067494 0.469955
v -0.813987 0.367494 0.469955
v 0.000000 0.367494 0.939911
v -0.813987 0.067494 -0.469955
v -0.813987 0.367494 -0.469955
v 0.000000 0.067494 -0.939911
v 0.000000 0.367494 -0.939911
v 0.813987 0.067494 -0.469955
v 0.813987 0.367494 -0.469955
v 0.813987 0.067494 0.469955
v 0.813987 0.367494 0.469955
v -0.643639 0.067494 -0.371605
v 0.643639 0.067494 -0.371605
v 0.000000 0.367494 0.743210
v 0.000000 0.367494 -0.743210
v 0.000000 0.067494 0.743210
v -0.643639 0.067494 0.371605
v -0.643639 0.367494 -0.371605
v 0.643639 0.367494 0.371605
vn -0.0000 -1.0000 -0.0000
vn -0.0000 1.0000 -0.0000
vn -0.5000 -0.0000 0.8660
vn -1.0000 -0.0000 -0.0000
vn -0.5000 -0.0000 -0.8660
vn 0.5000 -0.0000 -0.8660
vn 1.0000 -0.0000 -0.0000
vn 0.5000 -0.0000 0.8660
vt 0.750000 0.010000
vt 0.957846 0.130000
vt 0.957846 0.370000
vt 0.750000 0.490000
vt 0.166667 1.000000
vt -0.000000 1.000000
vt 0.542154 0.130000
vt 0.542154 0.370000
vt 1.000000 0.500000
vt 1.000000 1.000000
vt 0.833333 1.000000
vt 0.833333 0.500000
vt 0.666667 1.000000
vt 0.666667 0.500000
vt 0.500000 1.000000
vt 0.500000 0.500000
vt 0.333333 1.000000
vt 0.333333 0.500000
vt 0.166667 0.500000
vt -0.000000 0.500000
s 0
usemtl tile_not
f 1/1/1 17/2/1 9/2/1 11/1/1
f 22/3/1 21/4/1 5/4/1 6/3/1
f 24/5/2 19/6/2 8/6/2 16/5/2
f 18/7/1 1/1/1 11/1/1 13/7/1
f 4/8/1 18/7/1 13/7/1 15/8/1
f 21/4/1 4/8/1 15/8/1 5/4/1
f 5/9/3 8/10/3 7/11/3 6/12/3
f 6/12/4 7/11/4 10/13/4 9/14/4
f 9/14/5 10/13/5 12/15/5 11/16/5
f 11/16/6 12/15/6 14/17/6 13/18/6
f 13/18/7 14/17/7 16/5/7 15/19/7
f 15/19/8 16/5/8 8/6/8 5/20/8
f 2/17/2 24/5/2 16/5/2 14/17/2
f 17/2/1 22/3/1 6/3/1 9/2/1
f 20/15/2 2/17/2 14/17/2 12/15/2
f 19/10/2 3/11/2 7/11/2 8/10/2
f 23/13/2 20/15/2 12/15/2 10/13/2
f 3/11/2 23/13/2 10/13/2 7/11/2
f 2/17/3 20/15/3 1/15/3 18/17/3
f 3/11/6 19/10/6 21/10/6 22/11/6
f 24/5/4 2/17/4 18/17/4 4/5/4
f 23/13/7 3/11/7 22/11/7 17/13/7
f 19/6/5 24/5/5 4/5/5 21/6/5
f 20/15/8 23/13/8 17/13/8 1/15/8
o Cube
v -0.307014 0.110125 -0.819503
v -0.307014 0.410125 -0.819503
v 0.556203 0.110125 0.675633
v 0.556203 0.410125 0.675633
v -0.556203 0.110125 -0.675633
v -0.556203 0.410125 -0.675633
v 0.307014 0.110125 0.819503
v 0.307014 0.410125 0.819503
vn 0.8660 -0.0000 -0.5000
vn 0.5000 -0.0000 0.8660
vn -0.8660 -0.0000 0.5000
vn -0.5000 -0.0000 -0.8660
vn -0.0000 -1.0000 -0.0000
vn -0.0000 1.0000 -0.0000
vt 0.375000 0.000000
vt 0.625000 0.000000
vt 0.625000 0.250000
vt 0.375000 0.250000
vt 0.625000 0.500000
vt 0.375000 0.500000
vt 0.625000 0.750000
vt 0.375000 0.750000
vt 0.625000 1.000000
vt 0.375000 1.000000
vt 0.125000 0.500000
vt 0.125000 0.750000
vt 0.875000 0.500000
vt 0.875000 0.750000
s 0
usemtl tile_not
f 25/21/9 26/22/9 28/23/9 27/24/9
f 27/24/10 28/23/10 32/25/10 31/26/10
f 31/26/11 32/25/11 30/27/11 29/28/11
f 29/28/12 30/27/12 26/29/12 25/30/12
f 27/31/13 31/26/13 29/28/13 25/32/13
f 32/25/14 28/33/14 26/34/14 30/27/14
